<svg preserveAspectRatio="xMidYMid meet" viewBox="0 0 370.5 267.49171270718233" xmlns="http://www.w3.org/2000/svg" version="1.0" style="max-height: 500px" width="370.5" height="267.49171270718233">
<metadata>
Created by potrace 1.16, written by Peter Selinger 2001-2019
</metadata>
<g stroke="none" fill="#000000" transform="translate(0.000000,272.000000) scale(0.100000,-0.100000)">
<path d="M0 1360 l0 -1360 7500 0 7500 0 0 1360 0 1360 -7500 0 -7500 0 0&#10;-1360z m1907 1193 c81 -129 127 -250 160 -426 24 -130 24 -429 0 -549 -45&#10;-224 -134 -408 -265 -550 l-54 -58 44 -42 c146 -142 231 -313 244 -492 12&#10;-146 -37 -247 -132 -276 -83 -25 -169 26 -194 115 -17 60 -7 180 21 263 12 35&#10;23 61 25 59 2 -2 -3 -24 -12 -48 -21 -59 -30 -215 -15 -262 31 -93 136 -127&#10;205 -67 48 43 60 85 53 194 -9 166 -69 287 -217 437 -90 91 -203 175 -307 228&#10;-70 35 -62 23 15 -23 236 -140 424 -361 456 -536 4 -22 -4 -8 -22 36 -38 95&#10;-106 195 -185 273 l-65 63 -78 -52 c-205 -139 -453 -215 -736 -227 -364 -15&#10;-653 89 -729 263 -31 68 -28 161 7 224 15 27 36 58 47 67 15 13 13 7 -6 -18&#10;-100 -134 -64 -298 86 -387 272 -163 781 -146 1147 38 76 38 200 118 200 129&#10;0 21 -17 16 -78 -23 -82 -53 -146 -85 -237 -119 -81 -30 -213 -67 -235 -66 -8&#10;0 21 11 65 23 107 30 180 58 266 102 83 41 179 103 179 115 0 19 -213 132&#10;-352 185 -164 63 -409 113 -559 114 -99 0 -232 -26 -298 -59 -55 -28 -131 -99&#10;-131 -123 0 -6 -3 -9 -6 -6 -11 12 26 66 76 111 93 83 237 120 454 115 182 -4&#10;157 13 -31 21 l-148 6 88 9 c281 26 673 -78 939 -250 l67 -43 43 47 c219 235&#10;317 604 263 992 -23 160 -87 370 -114 370 -17 0 -89 -200 -111 -309 -45 -223&#10;-48 -434 -9 -616 21 -99 22 -112 8 -75 -30 72 -50 204 -56 355 -10 273 26 474&#10;118 664 l51 105 20 -25 c17 -21 18 -22 9 -2 -19 38 -29 35 -65 -19 -43 -65&#10;-91 -184 -122 -303 -17 -65 -22 -77 -18 -40 8 70 50 209 85 285 27 59 87 160&#10;94 160 2 0 25 -35 52 -77z m4497 -683 c119 -300 216 -553 216 -563 0 -16 -10&#10;-17 -96 -15 l-96 3 -47 125 -46 125 -277 3 -277 2 -42 -130 -41 -130 -98 0&#10;-97 0 52 149 c98 277 234 600 352 834 30 60 46 107 48 137 3 44 4 45 52 63 26&#10;11 68 22 93 26 l45 7 21 -45 c12 -25 119 -291 238 -591z m6681 625 c103 -22&#10;210 -78 275 -144 101 -103 150 -241 150 -424 1 -381 -236 -657 -565 -657 -148&#10;0 -267 50 -376 159 -123 123 -177 256 -186 461 -6 140 11 233 62 336 106 216&#10;368 326 640 269z m-5925 -483 c0 -435 2 -490 16 -511 32 -45 68 -51 294 -51&#10;l210 0 0 -81 0 -80 -268 3 c-264 3 -268 3 -317 28 -38 20 -55 37 -75 75 l-25&#10;49 -3 503 c-2 332 1 510 8 522 11 22 32 28 108 30 l52 1 0 -488z m1060 13 c0&#10;-532 0 -534 64 -560 27 -12 84 -15 251 -15 l215 0 0 -81 0 -80 -272 3 c-257 3&#10;-275 4 -313 24 -51 28 -70 50 -92 104 -15 40 -18 97 -21 525 -2 318 0 490 7&#10;508 13 34 40 46 109 46 l52 1 0 -475z m3350 -13 c0 -435 2 -490 16 -511 32&#10;-45 68 -51 294 -51 l210 0 0 -81 0 -80 -268 3 c-264 3 -268 3 -317 28 -38 20&#10;-55 37 -75 75 l-25 49 -3 503 c-2 332 1 510 8 522 11 22 32 28 108 30 l52 1 0&#10;-488z m-6902 1 c92 -260 170 -473 173 -473 17 0 204 491 294 773 l57 177 94 0&#10;c52 0 94 -4 94 -9 0 -4 -27 -87 -59 -183 -102 -300 -284 -745 -379 -923 -40&#10;-75 -61 -89 -146 -96 l-38 -4 -229 599 c-126 330 -229 603 -229 608 0 5 45 7&#10;101 6 l100 -3 167 -472z m5156 455 c10 -14 16 -44 16 -80 l0 -58 -275 0 -275&#10;0 0 -190 0 -190 225 0 225 0 0 -75 0 -75 -225 0 -225 0 0 -138 c0 -214 -3&#10;-212 325 -212 l235 0 0 -80 0 -80 -268 0 c-210 0 -279 3 -319 15 -68 20 -117&#10;74 -132 144 -7 34 -11 217 -11 525 0 488 1 495 40 509 8 3 158 6 332 6 317 1&#10;317 1 332 -21z m1160 6 c9 -8 16 -27 16 -42 0 -15 3 -44 6 -64 l7 -38 -277 0&#10;-276 0 0 -215 0 -215 235 0 235 0 0 -75 0 -75 -235 0 -235 0 0 -230 0 -230&#10;-85 0 -85 0 2 587 3 587 25 13 c19 9 106 13 337 13 270 0 314 -2 327 -16z&#10;m3482 5 c126 -23 245 -104 286 -195 28 -65 38 -142 27 -219 -18 -128 -87 -219&#10;-211 -279 l-69 -33 92 -119 c51 -65 104 -132 118 -147 37 -41 93 -67 146 -67&#10;l45 0 0 -38 c0 -71 -55 -112 -147 -112 -104 1 -145 37 -313 278 l-105 151&#10;-107 1 -108 0 0 -205 0 -205 -85 0 -85 0 0 578 c0 599 0 601 40 615 28 10 416&#10;7 476 -4z m-13350 -473 c66 -30 180 -140 239 -231 38 -58 96 -183 109 -235 4&#10;-14 -14 13 -38 60 -114 214 -302 380 -430 380 -65 0 -136 -72 -136 -135 1 -16&#10;7 -43 14 -60 12 -28 12 -26 8 31 -4 57 -2 64 26 95 28 31 35 34 84 33 63 -1&#10;115 -25 178 -84 44 -41 45 -41 5 -12 -57 43 -119 73 -163 79 -31 4 -44 0 -70&#10;-22 -26 -22 -32 -34 -32 -67 0 -92 128 -253 291 -365 76 -52 247 -143 270&#10;-143 7 0 10 -3 6 -6 -18 -18 -247 73 -352 141 -33 21 -53 30 -45 20 8 -10 49&#10;-40 90 -67 88 -57 86 -61 -9 -14 -249 126 -404 338 -360 493 15 55 73 117 121&#10;132 50 15 131 6 194 -23z m1669 23 c53 -15 110 -73 125 -129 55 -204 -218&#10;-483 -557 -569 -99 -26 -138 -27 -63 -2 119 39 309 146 351 198 17 20 9 16&#10;-56 -27 -48 -33 -144 -80 -105 -53 149 107 252 211 294 296 27 53 33 114 16&#10;147 -14 25 -62 40 -103 31 -129 -30 -291 -189 -424 -419 -51 -88 -48 -64 7 54&#10;108 234 291 413 439 431 89 10 161 -51 164 -141 2 -49 17 -53 17 -5 0 35 -24&#10;95 -48 122 -29 33 -74 50 -130 49 -72 -1 -174 -50 -262 -128 -65 -56 -64 -56&#10;10 18 117 115 221 156 325 127z m563 -748 c204 -60 302 -163 302 -315 0 -88&#10;-23 -139 -92 -201 -125 -112 -373 -175 -634 -161 -315 17 -608 124 -817 298&#10;-47 40 -47 40 -75 23 l-27 -17 22 23 23 23 -43 46 -42 45 47 -44 46 -44 64 43&#10;c151 101 395 196 623 244 85 18 102 24 60 20 -78 -7 -187 -29 -288 -59 -45&#10;-13 -83 -22 -85 -20 -8 7 218 75 313 94 148 29 145 29 345 26 155 -2 197 -6&#10;258 -24z m4598 -506 c50 -20 100 -71 125 -127 21 -47 24 -67 24 -188 0 -127&#10;-2 -139 -28 -195 -33 -70 -76 -118 -132 -148 -32 -17 -57 -22 -125 -22 -73 0&#10;-93 4 -143 29 -32 15 -61 34 -63 41 -6 14 43 95 57 95 4 0 11 -5 15 -11 13&#10;-21 89 -49 135 -49 57 0 105 30 136 85 21 38 39 103 30 112 -3 2 -21 -7 -41&#10;-21 -85 -57 -234 -40 -302 36 -90 98 -65 271 48 341 72 45 184 54 264 22z&#10;m721 -2 c94 -39 143 -126 151 -270 10 -192 -45 -323 -163 -386 -33 -18 -56&#10;-22 -130 -22 -92 1 -119 9 -187 57 l-27 19 31 44 c33 47 42 53 54 34 13 -21&#10;89 -49 135 -49 82 0 149 68 165 170 l7 45 -32 -27 c-79 -67 -227 -60 -309 16&#10;-98 88 -77 277 39 349 75 46 184 55 266 20z m743 5 c28 -9 64 -28 99 -54 5 -4&#10;-53 -94 -59 -91 -3 2 -31 16 -63 31 -95 46 -166 25 -215 -61 -12 -22 -25 -62&#10;-28 -89 l-7 -49 24 21 c42 38 72 47 146 47 129 0 216 -69 230 -180 17 -150&#10;-94 -264 -256 -263 -148 2 -237 88 -262 254 -14 95 0 204 38 288 61 137 196&#10;193 353 146z m-2060 -333 l0 -345 -60 0 -60 0 0 281 0 282 -37 -8 c-100 -19&#10;-91 -21 -100 21 -4 22 -8 43 -8 47 0 15 167 65 218 66 l47 1 0 -345z m-2190&#10;285 l0 -50 -190 0 -190 0 0 -90 0 -90 170 0 170 0 0 -55 0 -55 -170 0 -170 0&#10;0 -90 0 -90 195 0 195 0 0 -55 0 -55 -255 0 -255 0 0 340 0 340 250 0 250 0 0&#10;-50z m918 -42 l3 -67 67 -3 67 -3 1 -47 1 -48 -68 0 -69 0 0 -149 c0 -173 2&#10;-176 80 -169 l50 5 0 -48 0 -48 -42 -12 c-53 -14 -125 -5 -158 19 -40 30 -49&#10;73 -49 245 l-1 157 -36 0 -35 0 3 48 c3 45 4 47 36 50 l32 3 0 70 0 70 58 -3&#10;57 -3 3 -67z m-414 -89 c31 -11 58 -25 61 -30 4 -5 -3 -26 -15 -47 l-22 -39&#10;-40 20 c-58 29 -133 34 -158 12 -43 -39 -18 -72 80 -105 133 -44 176 -85 173&#10;-166 -5 -122 -135 -183 -289 -135 -38 11 -80 29 -93 40 l-24 18 22 37 c13 20&#10;25 36 28 36 3 0 31 -12 61 -27 67 -33 141 -36 172 -8 46 42 11 78 -114 116&#10;-76 23 -130 66 -142 112 -15 64 27 145 91 173 46 20 146 17 209 -7z m876 -434&#10;l0 -65 -65 0 -65 0 0 65 0 65 65 0 65 0 0 -65z"/>
<path d="M6024 2154 c-56 -121 -172 -396 -180 -430 l-6 -24 214 0 c118 0 217&#10;2 220 5 5 5 -186 532 -197 543 -2 3 -26 -39 -51 -94z"/>
<path d="M12808 2333 c-156 -59 -237 -184 -245 -383 -10 -229 84 -419 244&#10;-492 73 -34 208 -32 283 3 108 50 174 132 217 266 19 62 24 99 25 188 0 61 -5&#10;131 -12 155 -31 114 -97 198 -196 246 -52 25 -72 29 -164 32 -81 2 -116 -2&#10;-152 -15z"/>
<path d="M14120 2100 l0 -240 138 0 c166 0 216 13 277 75 89 88 99 225 23 311&#10;-61 69 -146 94 -323 94 l-115 0 0 -240z"/>
<path d="M2800 1199 c-113 -14 -261 -49 -387 -91 -138 -45 -328 -137 -328&#10;-158 0 -8 27 -33 60 -57 258 -182 651 -275 976 -229 316 44 490 170 460 332&#10;-10 50 -51 115 -90 140 -20 14 -17 7 15 -29 64 -73 78 -141 43 -213 -35 -73&#10;-132 -130 -288 -171 -78 -20 -127 -25 -256 -28 l-160 -4 135 9 c168 11 303 40&#10;399 86 174 82 209 201 92 307 -91 81 -241 118 -470 116 -75 -1 -165 -5 -201&#10;-10z"/>
<path d="M7758 674 c-57 -30 -77 -127 -37 -178 45 -57 119 -72 188 -36 87 44&#10;86 171 0 216 -36 18 -116 17 -151 -2z"/>
<path d="M8479 675 c-38 -20 -59 -58 -59 -104 0 -57 18 -90 62 -112 78 -40&#10;164 -13 202 64 17 37 18 40 1 83 -22 58 -62 84 -130 84 -27 -1 -62 -7 -76 -15z"/>
<path d="M9213 421 c-99 -45 -95 -174 7 -215 49 -20 81 -20 123 -2 48 20 69&#10;50 75 104 3 41 0 52 -23 80 -25 30 -76 52 -120 52 -11 0 -39 -9 -62 -19z"/>
</g>
</svg>